<?xml version="1.0" encoding="UTF-8" standalone="no"?>
<!DOCTYPE svg PUBLIC "-//W3C//DTD SVG 1.1//EN"
 "http://www.w3.org/Graphics/SVG/1.1/DTD/svg11.dtd">
<!-- Generated by graphviz version 2.44.0 (20200408.0750)
 -->
<!-- Pages: 1 -->
<svg width="716pt" height="404pt"
 viewBox="0.00 0.00 716.09 404.00" xmlns="http://www.w3.org/2000/svg" xmlns:xlink="http://www.w3.org/1999/xlink">
<g id="graph0" class="graph" transform="scale(1 1) rotate(0) translate(4 400)">
<polygon fill="white" stroke="transparent" points="-4,4 -4,-400 712.09,-400 712.09,4 -4,4"/>
<!-- 0 -->
<g id="node1" class="node">
<title>0</title>
<ellipse fill="none" stroke="black" cx="519.55" cy="-378" rx="30.59" ry="18"/>
<text text-anchor="middle" x="519.55" y="-374.3" font-family="Times,serif" font-size="14.00">(3±5)</text>
</g>
<!-- 2 -->
<g id="node3" class="node">
<title>2</title>
<ellipse fill="none" stroke="black" cx="492.55" cy="-306" rx="27" ry="18"/>
<text text-anchor="middle" x="492.55" y="-302.3" font-family="Times,serif" font-size="14.00">+</text>
</g>
<!-- 0&#45;&gt;2 -->
<g id="edge1" class="edge">
<title>0&#45;&gt;2</title>
<path fill="none" stroke="black" d="M513.01,-360.05C509.93,-352.06 506.17,-342.33 502.73,-333.4"/>
<polygon fill="black" stroke="black" points="505.89,-331.86 499.02,-323.79 499.36,-334.38 505.89,-331.86"/>
</g>
<!-- 21 -->
<g id="node22" class="node">
<title>21</title>
<ellipse fill="none" stroke="black" cx="547.55" cy="-234" rx="38.99" ry="18"/>
<text text-anchor="middle" x="547.55" y="-230.3" font-family="Times,serif" font-size="14.00">(31±29)</text>
</g>
<!-- 0&#45;&gt;21 -->
<g id="edge24" class="edge">
<title>0&#45;&gt;21</title>
<path fill="none" stroke="black" d="M522.92,-359.87C527.72,-335.56 536.54,-290.82 542.22,-262.01"/>
<polygon fill="black" stroke="black" points="545.66,-262.68 544.16,-252.19 538.79,-261.32 545.66,-262.68"/>
</g>
<!-- 1 -->
<g id="node2" class="node">
<title>1</title>
<ellipse fill="none" stroke="black" cx="313.55" cy="-378" rx="30.59" ry="18"/>
<text text-anchor="middle" x="313.55" y="-374.3" font-family="Times,serif" font-size="14.00">(2±4)</text>
</g>
<!-- 1&#45;&gt;2 -->
<g id="edge2" class="edge">
<title>1&#45;&gt;2</title>
<path fill="none" stroke="black" d="M339.38,-368.18C368.22,-358.16 416.15,-340.99 456.55,-324 458.36,-323.24 460.22,-322.43 462.09,-321.61"/>
<polygon fill="black" stroke="black" points="463.72,-324.71 471.36,-317.37 460.81,-318.34 463.72,-324.71"/>
</g>
<!-- 12 -->
<g id="node13" class="node">
<title>12</title>
<ellipse fill="none" stroke="black" cx="328.55" cy="-306" rx="38.99" ry="18"/>
<text text-anchor="middle" x="328.55" y="-302.3" font-family="Times,serif" font-size="14.00">(18±19)</text>
</g>
<!-- 1&#45;&gt;12 -->
<g id="edge12" class="edge">
<title>1&#45;&gt;12</title>
<path fill="none" stroke="black" d="M317.18,-360.05C318.85,-352.26 320.87,-342.82 322.74,-334.08"/>
<polygon fill="black" stroke="black" points="326.17,-334.79 324.85,-324.28 319.33,-333.32 326.17,-334.79"/>
</g>
<!-- 15 -->
<g id="node16" class="node">
<title>15</title>
<ellipse fill="none" stroke="black" cx="232.55" cy="-306" rx="38.99" ry="18"/>
<text text-anchor="middle" x="232.55" y="-302.3" font-family="Times,serif" font-size="14.00">(26±20)</text>
</g>
<!-- 1&#45;&gt;15 -->
<g id="edge15" class="edge">
<title>1&#45;&gt;15</title>
<path fill="none" stroke="black" d="M296.76,-362.5C285.59,-352.84 270.69,-339.97 258.06,-329.05"/>
<polygon fill="black" stroke="black" points="260,-326.1 250.15,-322.21 255.43,-331.4 260,-326.1"/>
</g>
<!-- 19 -->
<g id="node20" class="node">
<title>19</title>
<ellipse fill="none" stroke="black" cx="144.55" cy="-306" rx="30.59" ry="18"/>
<text text-anchor="middle" x="144.55" y="-302.3" font-family="Times,serif" font-size="14.00">(5±9)</text>
</g>
<!-- 1&#45;&gt;19 -->
<g id="edge19" class="edge">
<title>1&#45;&gt;19</title>
<path fill="none" stroke="black" d="M288.78,-366.93C262.78,-356.33 220.74,-339.12 184.55,-324 182.37,-323.09 180.14,-322.15 177.88,-321.2"/>
<polygon fill="black" stroke="black" points="179.21,-317.97 168.64,-317.3 176.49,-324.41 179.21,-317.97"/>
</g>
<!-- 3 -->
<g id="node4" class="node">
<title>3</title>
<ellipse fill="none" stroke="black" cx="421.55" cy="-234" rx="30.59" ry="18"/>
<text text-anchor="middle" x="421.55" y="-230.3" font-family="Times,serif" font-size="14.00">(5±9)</text>
</g>
<!-- 2&#45;&gt;3 -->
<g id="edge3" class="edge">
<title>2&#45;&gt;3</title>
<path fill="none" stroke="black" d="M477.84,-290.5C468.07,-280.86 455.06,-268.04 444,-257.14"/>
<polygon fill="black" stroke="black" points="446.31,-254.5 436.73,-249.97 441.39,-259.48 446.31,-254.5"/>
</g>
<!-- 2&#45;&gt;21 -->
<g id="edge23" class="edge">
<title>2&#45;&gt;21</title>
<path fill="none" stroke="black" d="M504.48,-289.81C511.49,-280.89 520.51,-269.41 528.49,-259.26"/>
<polygon fill="black" stroke="black" points="531.44,-261.16 534.87,-251.13 525.94,-256.83 531.44,-261.16"/>
</g>
<!-- 24 -->
<g id="node25" class="node">
<title>24</title>
<ellipse fill="none" stroke="black" cx="442.55" cy="-162" rx="38.99" ry="18"/>
<text text-anchor="middle" x="442.55" y="-158.3" font-family="Times,serif" font-size="14.00">(39±30)</text>
</g>
<!-- 2&#45;&gt;24 -->
<g id="edge27" class="edge">
<title>2&#45;&gt;24</title>
<path fill="none" stroke="black" d="M486.76,-288.25C480.57,-270.35 470.43,-241.15 461.55,-216 458.54,-207.48 455.22,-198.21 452.22,-189.83"/>
<polygon fill="black" stroke="black" points="455.42,-188.4 448.75,-180.17 448.84,-190.77 455.42,-188.4"/>
</g>
<!-- 5 -->
<g id="node6" class="node">
<title>5</title>
<ellipse fill="none" stroke="black" cx="118.55" cy="-162" rx="27" ry="18"/>
<text text-anchor="middle" x="118.55" y="-158.3" font-family="Times,serif" font-size="14.00">+</text>
</g>
<!-- 3&#45;&gt;5 -->
<g id="edge4" class="edge">
<title>3&#45;&gt;5</title>
<path fill="none" stroke="black" d="M396.56,-223.64C388.92,-220.96 380.44,-218.18 372.55,-216 295.74,-194.76 203.78,-177.56 154.3,-168.97"/>
<polygon fill="black" stroke="black" points="154.85,-165.51 144.41,-167.26 153.67,-172.41 154.85,-165.51"/>
</g>
<!-- 3&#45;&gt;24 -->
<g id="edge28" class="edge">
<title>3&#45;&gt;24</title>
<path fill="none" stroke="black" d="M426.63,-216.05C428.97,-208.26 431.8,-198.82 434.42,-190.08"/>
<polygon fill="black" stroke="black" points="437.84,-190.86 437.36,-180.28 431.14,-188.85 437.84,-190.86"/>
</g>
<!-- 4 -->
<g id="node5" class="node">
<title>4</title>
<ellipse fill="none" stroke="black" cx="219.55" cy="-378" rx="30.59" ry="18"/>
<text text-anchor="middle" x="219.55" y="-374.3" font-family="Times,serif" font-size="14.00">(8±1)</text>
</g>
<!-- 4&#45;&gt;5 -->
<g id="edge5" class="edge">
<title>4&#45;&gt;5</title>
<path fill="none" stroke="black" d="M193.28,-368.59C162.59,-358.16 114.68,-339.83 104.55,-324 78.22,-282.89 94.15,-223.28 107.06,-189.32"/>
<polygon fill="black" stroke="black" points="110.46,-190.23 110.91,-179.65 103.96,-187.64 110.46,-190.23"/>
</g>
<!-- 4&#45;&gt;15 -->
<g id="edge16" class="edge">
<title>4&#45;&gt;15</title>
<path fill="none" stroke="black" d="M222.69,-360.05C224.13,-352.35 225.86,-343.03 227.47,-334.36"/>
<polygon fill="black" stroke="black" points="230.95,-334.75 229.34,-324.28 224.07,-333.47 230.95,-334.75"/>
</g>
<!-- 6 -->
<g id="node7" class="node">
<title>6</title>
<ellipse fill="none" stroke="black" cx="118.55" cy="-90" rx="38.99" ry="18"/>
<text text-anchor="middle" x="118.55" y="-86.3" font-family="Times,serif" font-size="14.00">(13±10)</text>
</g>
<!-- 5&#45;&gt;6 -->
<g id="edge6" class="edge">
<title>5&#45;&gt;6</title>
<path fill="none" stroke="black" d="M118.55,-143.7C118.55,-135.98 118.55,-126.71 118.55,-118.11"/>
<polygon fill="black" stroke="black" points="122.05,-118.1 118.55,-108.1 115.05,-118.1 122.05,-118.1"/>
</g>
<!-- 11 -->
<g id="node12" class="node">
<title>11</title>
<ellipse fill="none" stroke="black" cx="74.55" cy="-18" rx="27" ry="18"/>
<text text-anchor="middle" x="74.55" y="-14.3" font-family="Times,serif" font-size="14.00">+</text>
</g>
<!-- 6&#45;&gt;11 -->
<g id="edge10" class="edge">
<title>6&#45;&gt;11</title>
<path fill="none" stroke="black" d="M108.12,-72.41C102.73,-63.83 96.04,-53.19 90.05,-43.67"/>
<polygon fill="black" stroke="black" points="92.88,-41.59 84.6,-34.99 86.96,-45.32 92.88,-41.59"/>
</g>
<!-- 7 -->
<g id="node8" class="node">
<title>7</title>
<ellipse fill="none" stroke="black" cx="30.55" cy="-378" rx="30.59" ry="18"/>
<text text-anchor="middle" x="30.55" y="-374.3" font-family="Times,serif" font-size="14.00">(3±5)</text>
</g>
<!-- 9 -->
<g id="node10" class="node">
<title>9</title>
<ellipse fill="none" stroke="black" cx="30.55" cy="-306" rx="27" ry="18"/>
<text text-anchor="middle" x="30.55" y="-302.3" font-family="Times,serif" font-size="14.00">+</text>
</g>
<!-- 7&#45;&gt;9 -->
<g id="edge7" class="edge">
<title>7&#45;&gt;9</title>
<path fill="none" stroke="black" d="M30.55,-359.7C30.55,-351.98 30.55,-342.71 30.55,-334.11"/>
<polygon fill="black" stroke="black" points="34.05,-334.1 30.55,-324.1 27.05,-334.1 34.05,-334.1"/>
</g>
<!-- 8 -->
<g id="node9" class="node">
<title>8</title>
<ellipse fill="none" stroke="black" cx="127.55" cy="-378" rx="30.59" ry="18"/>
<text text-anchor="middle" x="127.55" y="-374.3" font-family="Times,serif" font-size="14.00">(2±4)</text>
</g>
<!-- 8&#45;&gt;9 -->
<g id="edge8" class="edge">
<title>8&#45;&gt;9</title>
<path fill="none" stroke="black" d="M108.84,-363.5C93.94,-352.74 72.9,-337.56 56.38,-325.64"/>
<polygon fill="black" stroke="black" points="58.37,-322.76 48.21,-319.75 54.27,-328.44 58.37,-322.76"/>
</g>
<!-- 8&#45;&gt;19 -->
<g id="edge20" class="edge">
<title>8&#45;&gt;19</title>
<path fill="none" stroke="black" d="M131.66,-360.05C133.56,-352.26 135.85,-342.82 137.97,-334.08"/>
<polygon fill="black" stroke="black" points="141.39,-334.82 140.35,-324.28 134.59,-333.17 141.39,-334.82"/>
</g>
<!-- 10 -->
<g id="node11" class="node">
<title>10</title>
<ellipse fill="none" stroke="black" cx="30.55" cy="-90" rx="30.59" ry="18"/>
<text text-anchor="middle" x="30.55" y="-86.3" font-family="Times,serif" font-size="14.00">(5±9)</text>
</g>
<!-- 9&#45;&gt;10 -->
<g id="edge9" class="edge">
<title>9&#45;&gt;10</title>
<path fill="none" stroke="black" d="M30.55,-287.85C30.55,-250.83 30.55,-163.18 30.55,-118.39"/>
<polygon fill="black" stroke="black" points="34.05,-118.23 30.55,-108.23 27.05,-118.23 34.05,-118.23"/>
</g>
<!-- 10&#45;&gt;11 -->
<g id="edge11" class="edge">
<title>10&#45;&gt;11</title>
<path fill="none" stroke="black" d="M40.75,-72.76C46.14,-64.19 52.87,-53.49 58.9,-43.9"/>
<polygon fill="black" stroke="black" points="62.04,-45.48 64.4,-35.15 56.11,-41.75 62.04,-45.48"/>
</g>
<!-- 14 -->
<g id="node15" class="node">
<title>14</title>
<ellipse fill="none" stroke="black" cx="336.55" cy="-234" rx="27" ry="18"/>
<text text-anchor="middle" x="336.55" y="-230.3" font-family="Times,serif" font-size="14.00">+</text>
</g>
<!-- 12&#45;&gt;14 -->
<g id="edge13" class="edge">
<title>12&#45;&gt;14</title>
<path fill="none" stroke="black" d="M330.52,-287.7C331.41,-279.98 332.47,-270.71 333.45,-262.11"/>
<polygon fill="black" stroke="black" points="336.93,-262.44 334.59,-252.1 329.98,-261.64 336.93,-262.44"/>
</g>
<!-- 13 -->
<g id="node14" class="node">
<title>13</title>
<ellipse fill="none" stroke="black" cx="416.55" cy="-306" rx="30.59" ry="18"/>
<text text-anchor="middle" x="416.55" y="-302.3" font-family="Times,serif" font-size="14.00">(8±1)</text>
</g>
<!-- 13&#45;&gt;14 -->
<g id="edge14" class="edge">
<title>13&#45;&gt;14</title>
<path fill="none" stroke="black" d="M399.97,-290.5C388.37,-280.35 372.72,-266.65 359.87,-255.4"/>
<polygon fill="black" stroke="black" points="362.12,-252.72 352.29,-248.77 357.51,-257.99 362.12,-252.72"/>
</g>
<!-- 20 -->
<g id="node21" class="node">
<title>20</title>
<ellipse fill="none" stroke="black" cx="188.55" cy="-234" rx="27" ry="18"/>
<text text-anchor="middle" x="188.55" y="-230.3" font-family="Times,serif" font-size="14.00">+</text>
</g>
<!-- 15&#45;&gt;20 -->
<g id="edge21" class="edge">
<title>15&#45;&gt;20</title>
<path fill="none" stroke="black" d="M222.12,-288.41C216.73,-279.83 210.04,-269.19 204.05,-259.67"/>
<polygon fill="black" stroke="black" points="206.88,-257.59 198.6,-250.99 200.96,-261.32 206.88,-257.59"/>
</g>
<!-- 16 -->
<g id="node17" class="node">
<title>16</title>
<ellipse fill="none" stroke="black" cx="598.55" cy="-378" rx="30.59" ry="18"/>
<text text-anchor="middle" x="598.55" y="-374.3" font-family="Times,serif" font-size="14.00">(3±5)</text>
</g>
<!-- 18 -->
<g id="node19" class="node">
<title>18</title>
<ellipse fill="none" stroke="black" cx="653.55" cy="-306" rx="27" ry="18"/>
<text text-anchor="middle" x="653.55" y="-302.3" font-family="Times,serif" font-size="14.00">+</text>
</g>
<!-- 16&#45;&gt;18 -->
<g id="edge17" class="edge">
<title>16&#45;&gt;18</title>
<path fill="none" stroke="black" d="M610.75,-361.46C617.87,-352.4 627,-340.79 635,-330.61"/>
<polygon fill="black" stroke="black" points="637.95,-332.52 641.38,-322.49 632.44,-328.19 637.95,-332.52"/>
</g>
<!-- 17 -->
<g id="node18" class="node">
<title>17</title>
<ellipse fill="none" stroke="black" cx="677.55" cy="-378" rx="30.59" ry="18"/>
<text text-anchor="middle" x="677.55" y="-374.3" font-family="Times,serif" font-size="14.00">(2±4)</text>
</g>
<!-- 17&#45;&gt;18 -->
<g id="edge18" class="edge">
<title>17&#45;&gt;18</title>
<path fill="none" stroke="black" d="M671.74,-360.05C669,-352.06 665.66,-342.33 662.6,-333.4"/>
<polygon fill="black" stroke="black" points="665.86,-332.11 659.3,-323.79 659.24,-334.38 665.86,-332.11"/>
</g>
<!-- 19&#45;&gt;20 -->
<g id="edge22" class="edge">
<title>19&#45;&gt;20</title>
<path fill="none" stroke="black" d="M154.75,-288.76C160.14,-280.19 166.87,-269.49 172.9,-259.9"/>
<polygon fill="black" stroke="black" points="176.04,-261.48 178.4,-251.15 170.11,-257.75 176.04,-261.48"/>
</g>
<!-- 23 -->
<g id="node24" class="node">
<title>23</title>
<ellipse fill="none" stroke="black" cx="591.55" cy="-162" rx="27" ry="18"/>
<text text-anchor="middle" x="591.55" y="-158.3" font-family="Times,serif" font-size="14.00">+</text>
</g>
<!-- 21&#45;&gt;23 -->
<g id="edge25" class="edge">
<title>21&#45;&gt;23</title>
<path fill="none" stroke="black" d="M557.97,-216.41C563.37,-207.83 570.06,-197.19 576.04,-187.67"/>
<polygon fill="black" stroke="black" points="579.14,-189.32 581.5,-178.99 573.21,-185.59 579.14,-189.32"/>
</g>
<!-- 22 -->
<g id="node23" class="node">
<title>22</title>
<ellipse fill="none" stroke="black" cx="635.55" cy="-234" rx="30.59" ry="18"/>
<text text-anchor="middle" x="635.55" y="-230.3" font-family="Times,serif" font-size="14.00">(8±1)</text>
</g>
<!-- 22&#45;&gt;23 -->
<g id="edge26" class="edge">
<title>22&#45;&gt;23</title>
<path fill="none" stroke="black" d="M625.34,-216.76C619.96,-208.19 613.23,-197.49 607.2,-187.9"/>
<polygon fill="black" stroke="black" points="609.98,-185.75 601.7,-179.15 604.06,-189.48 609.98,-185.75"/>
</g>
</g>
</svg>
